<?xml version="1.0" encoding="UTF-8" standalone="no"?>
<!-- Generator: Adobe Illustrator 19.2.0, SVG Export Plug-In . SVG Version: 6.00 Build 0)  -->
<svg id="Capa_1" style="enable-background:new 0 0 365.4 250.3" xmlns="http://www.w3.org/2000/svg" xml:space="preserve" viewBox="0 0 365.4 250.3" version="1.1" y="0px" x="0px" xmlns:xlink="http://www.w3.org/1999/xlink">
<style type="text/css">
	.st0{fill:#4D4E4E;}
</style>
		<path class="st0" d="m311.5 79.2c-0.5-0.1-1-0.2-1.6-0.2-3.3 0-6.1 2.7-6.1 6.1 0 3.3 2.7 6.1 6.1 6.1 3.3 0 6.1-2.7 6.1-6.1 0-0.6-0.1-1.1-0.2-1.6l-3.7 3.7c-0.6 0.6-1.4 0.9-2.1 0.9-0.8 0-1.5-0.3-2.1-0.9-1.2-1.2-1.2-3.1 0-4.2l3.6-3.8z"/>
		<path class="st0" d="m319.3 71.4c0-0.3 0-0.7-0.1-1-2.7-1.7-5.9-2.7-9.3-2.7-9.6 0-17.4 7.8-17.4 17.4s7.8 17.4 17.4 17.4 17.4-7.8 17.4-17.4c0-3.4-1-6.6-2.7-9.2h-0.7-0.5l-3 3c1.1 1.8 1.7 3.9 1.7 6.2 0 6.7-5.4 12.1-12.1 12.1s-12.1-5.4-12.1-12.1 5.4-12.1 12.1-12.1c2.3 0 4.4 0.6 6.2 1.7l3.1-3.3z"/>
		<path class="st0" d="m330.9 73.9c-0.2 0.2-0.4 0.3-0.7 0.5 1.7 3.2 2.6 6.8 2.6 10.6 0 12.7-10.3 22.9-22.9 22.9-12.6 0.1-22.9-10.2-22.9-22.9s10.3-22.9 22.9-22.9c3.8 0 7.4 0.9 10.6 2.6 0.2-0.2 0.3-0.4 0.5-0.6l3.2-3.2c-4.2-2.5-9.1-3.9-14.3-3.9-15.5 0-28.2 12.6-28.2 28.2 0 15.5 12.6 28.2 28.2 28.2 15.5 0 28.2-12.6 28.2-28.2 0-5.2-1.4-10.1-3.9-14.3l-3.3 3z"/>
		<path class="st0" d="m335.5 59.5c-1.8-1.8-0.8-5.6-2.6-3.8l-10.1 10.1c-1.1 1.1-1.1 3.5-1 5.2l-12.9 13c-0.6 0.6-0.6 1.5 0 2.1 0.3 0.3 0.7 0.4 1.1 0.4s0.8-0.1 1.1-0.4l12.8-12.8c1.9 0 4.8-0.5 5.4-1.2l10-10.1c1.8-1.7-2-0.8-3.8-2.5z"/>
				<path class="st0" d="m177.1 117.6c0 2.3-1.9 4.2-4.2 4.2h-35.1c-2.3 0-4.2-1.9-4.2-4.2v-26.1c-2.3 1.9-5.2 3-8.4 3.2v30.5c0 2.9 2.3 5.2 5.2 5.2h49.8c2.9 0 5.2-2.3 5.2-5.2v-30.5c-3.2-0.2-6.1-1.3-8.4-3.2v26.1z"/>
				<polygon points="154.1 79 154.1 53 140.8 53 136.5 79" class="st0"/>
				<polygon points="174.4 79 170 53 156.8 53 156.8 79" class="st0"/>
				<path class="st0" d="m196.4 79c-0.2-1.5-0.7-2.9-1.5-4.2l-6.9-16.1c-1.3-3.1-5.2-5.7-8.7-5.7h-6.6l4.4 26h19.3z"/>
				<path class="st0" d="m114.5 81.6c0.7 5 4.9 8.9 10.2 8.9 4.8 0 8.9-3.4 10-7.9h0.6c1.1 4.5 5.1 7.9 10 7.9 4.8 0 8.9-3.4 10-7.9h0.6c1.1 4.5 5.1 7.9 10 7.9 4.8 0 8.9-3.4 10-7.9h0.6c1.1 4.5 5.1 7.9 10 7.9 5.2 0 9.5-3.9 10.2-8.9h-82.2z"/>
				<path class="st0" d="m138.1 53h-6.6c-3.4 0-7.3 2.6-8.7 5.7l-6.8 16.3c-0.7 1.2-1.2 2.6-1.4 4.1h19.3l4.2-26.1z"/>
				<path class="st0" d="m210.8 62.6h-8.4c-1.6 0-2.8 1.3-2.8 2.8 0 1.6 1.3 2.8 2.8 2.8h8.4c1.6 0 2.8-1.3 2.8-2.8s-1.3-2.8-2.8-2.8z"/>
				<path class="st0" d="m191.1 31.2l-6 6c-1.1 1.1-1.1 2.9 0 4 0.5 0.5 1.3 0.8 2 0.8s1.4-0.3 2-0.8l6-6c1.1-1.1 1.1-2.9 0-4s-2.9-1.1-4 0z"/>
				<path class="st0" d="m154.9 35.7c1.6 0 2.8-1.3 2.8-2.8v-8.4c0-1.6-1.3-2.8-2.8-2.8-1.6 0-2.8 1.3-2.8 2.8v8.4c0 1.6 1.3 2.8 2.8 2.8z"/>
				<path class="st0" d="m107.6 62.6h-8.4c-1.6 0-2.8 1.3-2.8 2.8 0 1.6 1.3 2.8 2.8 2.8h8.4c1.6 0 2.8-1.3 2.8-2.8 0.1-1.5-1.2-2.8-2.8-2.8z"/>
				<path class="st0" d="m120.9 41.2c0.6 0.6 1.3 0.8 2 0.8s1.4-0.3 2-0.8c1.1-1.1 1.1-2.9 0-4l-6-6c-1.1-1.1-2.9-1.1-4 0s-1.1 2.9 0 4l6 6z"/>
					<path class="st0" d="m75.6 207.5h-41.3c-4.1 0-7.5-3.4-7.5-7.5v-22.5c0-4.1 3.4-7.5 7.5-7.5h41.3c4.1 0 7.5 3.4 7.5 7.5v22.5c0.1 4.1-3.3 7.5-7.5 7.5zm-41.3-33.8c-2.1 0-3.8 1.7-3.8 3.8v22.5c0 2.1 1.7 3.8 3.8 3.8h41.3c2.1 0 3.8-1.7 3.8-3.8v-22.5c0-2.1-1.7-3.8-3.8-3.8h-41.3z"/>
				<path class="st0" d="m84.1 211.2h-59.1v5.6h60v-5.6h-0.9zm-23.5 3.8h-11.3v-1.5h11.3v1.5z"/>
				<path class="st0" d="m71.4 176.8h-4c-1.5 0-3 1.1-3.5 2.5l-0.3 1c-0.3-0.1-0.7-0.2-1.1-0.2h-18.3c-0.8 0-1.6 0.4-2 1s-0.5 1.4-0.2 2.2l2.4 6.3c0.5 1.4 2.1 2.4 3.6 2.4h11.3 0.5l-0.1 0.2c-0.2 0.6-0.9 1.1-1.6 1.1h-11.6c-0.6 0-1 0.5-1 1 0 0.6 0.5 1 1 1h0.8c-0.5 0.5-0.8 1.2-0.8 1.9 0 1.6 1.3 2.8 2.8 2.8 1.6 0 2.8-1.3 2.8-2.8 0-0.7-0.3-1.4-0.8-1.9h4.7c-0.5 0.5-0.8 1.2-0.8 1.9 0 1.6 1.3 2.8 2.8 2.8 1.6 0 2.8-1.3 2.8-2.8 0-1-0.5-1.8-1.2-2.3 0.9-0.4 1.6-1.2 1.9-2.1l1.1-3.3 2-6.1v-0.2l1-3.1c0.2-0.6 0.9-1.1 1.6-1.1h4c0.6 0 1-0.5 1-1 0.2-0.8-0.3-1.2-0.8-1.2zm-22.1 21.3c-0.5 0-1-0.4-1-1 0-0.5 0.4-1 1-1 0.5 0 1 0.4 1 1s-0.4 1-1 1zm13.2-16c0.2 0 0.3 0 0.4 0.1v0.3l-1 2.9h-4.1l0.9-3.3h3.8zm-10.9 7.8l-0.9-3.3h5.4l-0.9 3.3h-3.6zm-1.2-4.5l-0.9-3.3h7.8l-0.9 3.3h-6zm-6.6-3.2s0.1-0.1 0.3-0.1h4.2l0.9 3.3h-4.2l-1.1-2.9c-0.1-0.2-0.1-0.3-0.1-0.3zm4.1 7.7c-0.6 0-1.4-0.5-1.7-1.1l-0.8-2.1h4.1l0.9 3.3h-2.5zm11.3 0h-2.7l0.9-3.3h4.1l-0.2 0.7v0.1l-0.4 1.3v0.1c-0.3 0.6-1.1 1.1-1.7 1.1zm-1 8.2c-0.5 0-1-0.4-1-1 0-0.5 0.4-1 1-1 0.5 0 1 0.4 1 1-0.1 0.6-0.5 1-1 1z"/>
	<path class="st0" d="m155 160.1c-44.1 0-80.1-35.9-80.1-80.1s35.9-80 80.1-80c44.1 0 80 35.9 80 80.1s-35.9 80-80 80zm0-155.7c-41.7 0-75.7 34-75.7 75.7s34 75.7 75.7 75.7c41.7 0 75.7-34 75.7-75.7s-34-75.7-75.7-75.7z"/>
	<path class="st0" d="m310.4 141.1c-14.7 0-28.5-5.7-38.9-16.1s-16.1-24.2-16.1-38.9 5.7-28.5 16.1-38.9 24.2-16.1 38.9-16.1c14.7 0 28.5 5.7 38.9 16.1s16.1 24.2 16.1 38.9-5.7 28.5-16.1 38.9-24.2 16.1-38.9 16.1zm0-105.6c-13 0-25.9 4.9-35.8 14.8-9.6 9.6-14.8 22.3-14.8 35.8s5.3 26.2 14.8 35.8c19.7 19.7 51.8 19.7 71.6 0 19.7-19.7 19.7-51.8 0-71.6-9.9-9.8-22.8-14.8-35.8-14.8z"/>
	<path class="st0" d="m55 250c-30.3 0-55-24.7-55-55s24.7-55 55-55 55 24.7 55 55-24.7 55-55 55zm0-105.6c-27.9 0-50.6 22.7-50.6 50.6s22.7 50.6 50.6 50.6 50.6-22.7 50.6-50.6c0-27.9-22.7-50.6-50.6-50.6z"/>
	<rect y="81.6" x="234.9" height="4.4" class="st0" width="24.1"/>
		<rect transform="matrix(.7071 -.7071 .7071 .7071 -75.946 111.63)" height="4.4" width="24.1" y="145.3" x="84.7" class="st0"/>
</svg>
