<?xml version="1.0" encoding="UTF-8" standalone="no"?>
<!-- Generator: Adobe Illustrator 19.2.0, SVG Export Plug-In . SVG Version: 6.00 Build 0)  -->
<svg id="Capa_1" style="enable-background:new 0 0 349.5 250.3" xmlns="http://www.w3.org/2000/svg" xml:space="preserve" viewBox="0 0 349.5 250.3" version="1.1" y="0px" x="0px" xmlns:xlink="http://www.w3.org/1999/xlink">
<style type="text/css">
	.st0{fill-rule:evenodd;clip-rule:evenodd;}
</style>
	<path d="m231 49.7c-0.7-1-4.8-1.5-5.9-1.6l-2.2 7.2-13.2 41h-58.8l-10.6-57.6c-0.2-1.3-1.1-2.3-2.3-2.8l-17.4-6.8c-1.9-0.7-4.1 0.2-4.8 2.1-0.8 1.9 0.2 4.1 2.1 4.8l15.5 6 10.8 58.6c0.3 1.8 1.9 3 3.7 3h1.8l-4.1 11.3c-0.3 0.9-0.2 2 0.4 2.8s1.5 1.3 2.5 1.3h2.9c-1.8 2-2.9 4.6-2.9 7.4 0 6.1 5 11.1 11.2 11.1s11.2-5 11.2-11.1c0-2.9-1.1-5.4-2.9-7.4h24.4c-1.8 2-2.9 4.6-2.9 7.4 0 6.1 5 11.1 11.2 11.1s11.2-5 11.2-11.1c0-2.9-1.1-5.4-2.9-7.4h3.5c1.7 0 3.1-1.4 3.1-3.1s-1.4-3.1-3.1-3.1h-59.6l3.4-9.3h56.3c1.6 0 3.1-1 3.6-2.6l15.5-48.2c0.2-0.9 0-2.1-0.7-3m-30.4 71.9c2.7 0 5 2.2 5 4.9s-2.2 5-5 5c-2.7 0-5-2.2-5-5 0-2.6 2.3-4.9 5-4.9m-41 0c2.7 0 5 2.2 5 4.9s-2.2 5-5 5c-2.7 0-5-2.2-5-5 0-2.6 2.2-4.9 5-4.9"/>
	<path d="m182.7 0c-14 0-25.3 11.3-25.3 25.3s25.3 58.1 25.3 58.1 25.3-44.1 25.3-58.1c0-14-11.3-25.3-25.3-25.3m0 39.6c-7.7 0-13.9-6.2-13.9-13.9s6.2-13.9 13.9-13.9 13.9 6.2 13.9 13.9c0 7.6-6.2 13.9-13.9 13.9"/>
	<path d="m58.8 220.6c-2.8 0-5.4-0.5-7.8-1.4-2.3-0.9-4.4-2.2-6.1-3.8s-3-3.6-4-5.9-1.4-4.8-1.4-7.6v-0.1c0-2.6 0.4-5 1.3-7.3s2.1-4.3 3.7-6 3.5-3 5.7-4 4.6-1.5 7.3-1.5c3.1 0 5.8 0.5 8.1 1.6s4.2 2.5 5.6 4.3c1.5 1.8 2.6 3.9 3.3 6.2 0.7 2.4 1.1 4.9 1.1 7.5v1.3c0 0.4 0 0.9-0.1 1.3h-25c0.2 2.3 1.8 4.5 3.1 5.4 1.3 1 2.6 1.5 4.6 1.5 1.5 0 2.9-0.3 4.1-0.9 1.3-0.6 2.9-2.1 4.2-3.4l7.8 5.4c-1.7 2.2-3.9 4-6.4 5.3-2.5 1.5-5.6 2.1-9.1 2.1zm5.9-23.2c-0.2-2-0.9-3.1-2-4.3s-3.2-2.2-5-2.2c-1.7 0-3.8 1-4.8 2.2-1.1 1.2-1.8 2.3-2.1 4.3h13.9z"/>
	<path d="m17.8 183.9v-10.4h-11v10.4h-6.8v8.8h6.8v19.1s0.5 3 3.5 6 9.8 2.8 9.8 2.8 6.3-0.5 6.9-1.6v-8.9s-1.3 1.3-4.5 1.3-4.7-2.3-4.7-6.5 0-12.2 0-12.2h9.5v-8.8h-9.5z"/>
	<rect y="184.1" x="27.8" height="35.2" width="10.9"/>
	<circle cy="173.1" cx="33" r="6.3"/>
	<path d="m97.8 183.3s-6.1-0.5-10.2 4.7v-3.6h-10.8v35.1h10.8v-20.2c0.2-2.3 1.4-6.6 6.5-6.6 4.6 0 5.5 3.8 5.7 5.6v21.2h10.8v-23.6s0.4-12.6-12.8-12.6z"/>
	<path d="m139 164.9v22.6c-2.9-2.7-6.6-4.3-10.6-4.3-9.2 0-16.7 8.3-16.7 18.6s7.5 18.6 16.7 18.6c4.5 0 8.6-2 11.6-5.2v4.2h10v-54.5h-11zm-7.8 46.4c-4.9 0-8.8-4.1-8.8-9.3s3.9-9.3 8.8-9.3c4.9 0 8.8 4.1 8.8 9.3s-3.9 9.3-8.8 9.3z"/>
	<path d="m169.5 183.3c-11.7 0-16 5.7-16 5.7l5.9 6.2c0.2-0.7 3.2-4.6 8.8-4.6s6.8 5.8 6.8 5.8v0.8h-4.8s-19-0.7-19 12.5c0 0-0.2 10.6 12.2 10.6 0 0 6.5 0.9 11.5-5.2v4.1h10v-21.2-2.5c0.2-4.6-3.7-12.2-15.4-12.2zm5.6 24.5c-1.1 5.6-8.1 5.4-8.1 5.4s-5.3 0-5.3-3.8c0-5.1 7.8-5.3 7.8-5.3h5.6v3.7z"/>
	<path d="m210.5 191.9l4-2.7s-2-6.5-12.4-6.5-11.8 8-11.8 10.1-0.1 8 11.1 9.9c11.2 1.9 9.8 7.1 9.8 7.1s-0.6 5.9-8.5 5.9c-7.9 0-10-5.9-10-5.9l-4.1 3.1s3.3 6.9 13.8 6.9c10.4 0 13.3-6.1 13.3-11.1s-3.3-9.1-12.2-9.9c-9-0.9-8.6-5.6-8.6-6.2s1.1-5.8 7.4-5.8 8.2 5.1 8.2 5.1z"/>
	<path d="m224 183.6h-4.6s0.5 8 0.5 10.6c0 2.7 0.1 24.6 0.1 24.6h4.4l0.1-18.6s0.1-13.6 12.1-13.6c0 0 7.4-0.8 7.4 11.3v20.7h4.4v-19.9s0-12.1 10.4-12.1c0 0 9.2-1.4 9.2 11.9v20.3h4.3v-23.7s0.3-12.7-13.1-12.7c0 0-9.6-0.1-11.9 7.5 0 0-1.8-7.4-10.6-7.4 0 0-8.8-0.3-12.3 7.1l-0.4-6z"/>
	<path d="m305.7 206.2v-12.2s-4.7-11.5-13.7-11.5-13.5 5-13.5 5l2.7 3.2c4.3-4 10.9-4.1 10.9-4.1 9.7 0 9.5 7.8 9.5 7.8v3.3l-8.4-0.2c-15.1 0.3-16.2 8.6-16.2 11.5 0 3.7 1.4 10.8 12.1 10.8s12.7-6.8 12.7-6.8l0.3 5.5h4.4c-0.4-1.4-0.8-12.3-0.8-12.3zm-4.2 0c-0.9 4.6-3.5 9.6-12 9.6s-8.3-6.5-8.3-6.5c0-7.9 13.3-8 13.3-8h7v4.9z"/>
	<path d="m312.2 183.6s0.6 7.6 0.6 10.3v24.9h4.3v-20.4s0.3-11.6 14.2-11.6v-3.8s-1.5-0.3-3.2-0.3-6.3 1.2-8 2.9c-1.6 1.7-3.3 4.2-3.3 4.2l-0.1-6.1-4.5-0.1z"/>
	<path d="m349.2 183.7h-10v-10.2h-4.4v10.2h-7.9v4.1h7.8v24.6s0.3 7.4 8.6 7.4c0 0 4.9 0 6.2-1.2l-0.3-4.1s-2.6 1.3-5 1.3c-2.5 0-4.6-0.8-5.1-5.8v-22h10.1v-4.3z"/>
		<path d="m102.8 242c-0.5 0-0.9-0.1-1.2-0.2-0.4-0.1-0.7-0.3-1-0.6s-0.5-0.6-0.6-1-0.2-0.8-0.2-1.4v-4.1h1.2v4c0 0.7 0.2 1.2 0.5 1.5s0.8 0.5 1.3 0.5c0.6 0 1-0.2 1.3-0.5s0.5-0.8 0.5-1.5v-4.1h1.2v4c0 0.5-0.1 1-0.2 1.4s-0.4 0.7-0.6 1c-0.3 0.3-0.6 0.5-1 0.6-0.4 0.4-0.8 0.4-1.2 0.4z"/>
		<path d="m106.7 234.8h1.2l3.8 4.9v-4.9h1.2v7.1h-1l-3.9-5.1v5.1h-1.2v-7.1z"/>
		<path d="m116 234.8h2.8c0.4 0 0.8 0.1 1.1 0.2s0.6 0.3 0.9 0.5c0.2 0.2 0.4 0.5 0.5 0.8s0.2 0.6 0.2 1-0.1 0.7-0.2 1c-0.2 0.3-0.4 0.6-0.6 0.8-0.3 0.2-0.6 0.4-0.9 0.5s-0.7 0.2-1.1 0.2h-1.4v2.3h-1.3v-7.3zm2.7 3.7c0.5 0 0.8-0.1 1.1-0.4 0.3-0.2 0.4-0.5 0.4-0.9s-0.1-0.7-0.4-1c-0.3-0.2-0.7-0.3-1.1-0.3h-1.5v2.6h1.5z"/>
		<path d="m121.9 234.8h3.2c0.4 0 0.8 0.1 1.2 0.2 0.3 0.1 0.6 0.3 0.9 0.5 0.2 0.2 0.3 0.4 0.4 0.7s0.2 0.5 0.2 0.9c0 0.3 0 0.6-0.1 0.8s-0.2 0.4-0.4 0.6-0.3 0.3-0.5 0.5c-0.2 0.1-0.4 0.2-0.7 0.3l1.9 2.7h-1.5l-1.8-2.5h-1.5v2.5h-1.2v-7.2zm3.1 3.6c0.4 0 0.8-0.1 1.1-0.3s0.4-0.5 0.4-0.9-0.1-0.7-0.4-0.9-0.6-0.3-1.1-0.3h-1.8v2.4h1.8z"/>
		<path d="m131.7 242.1c-0.5 0-1-0.1-1.5-0.3s-0.8-0.5-1.2-0.8c-0.3-0.3-0.6-0.7-0.8-1.2-0.2-0.4-0.3-0.9-0.3-1.4s0.1-1 0.3-1.4 0.4-0.8 0.8-1.2c0.3-0.3 0.7-0.6 1.2-0.8s1-0.3 1.5-0.3 1 0.1 1.5 0.3 0.8 0.5 1.2 0.8c0.3 0.3 0.6 0.7 0.8 1.2s0.3 0.9 0.3 1.4c0 0.5-0.1 1-0.3 1.4s-0.4 0.8-0.8 1.2c-0.3 0.3-0.7 0.6-1.2 0.8-0.4 0.2-0.9 0.3-1.5 0.3zm0.1-1.2c0.4 0 0.7-0.1 1-0.2s0.5-0.3 0.8-0.5c0.2-0.2 0.4-0.5 0.5-0.8s0.2-0.6 0.2-1c0-0.3-0.1-0.7-0.2-1s-0.3-0.6-0.5-0.8-0.5-0.4-0.8-0.5-0.6-0.2-1-0.2-0.7 0.1-1 0.2c-0.3 0.1-0.5 0.3-0.8 0.5-0.2 0.2-0.4 0.5-0.5 0.8s-0.2 0.6-0.2 1c0 0.3 0.1 0.7 0.2 1s0.3 0.6 0.5 0.8 0.5 0.4 0.8 0.5 0.6 0.2 1 0.2z"/>
		<path d="m136.1 234.8h2.6c0.6 0 1.1 0.1 1.5 0.3 0.5 0.2 0.9 0.4 1.2 0.7s0.6 0.7 0.8 1.1 0.3 0.9 0.3 1.4-0.1 1-0.3 1.4-0.4 0.8-0.8 1.1c-0.3 0.3-0.7 0.6-1.2 0.7-0.5 0.2-1 0.3-1.5 0.3h-2.6v-7zm2.6 6c0.4 0 0.7-0.1 1-0.2s0.6-0.3 0.8-0.5 0.4-0.5 0.5-0.8 0.2-0.6 0.2-1c0-0.3-0.1-0.7-0.2-1s-0.3-0.6-0.5-0.8-0.5-0.4-0.8-0.5-0.6-0.2-1-0.2h-1.4v4.9h1.4z"/>
		<path d="m146.1 242c-0.5 0-0.9-0.1-1.2-0.2-0.4-0.1-0.7-0.3-1-0.6s-0.5-0.6-0.6-1-0.2-0.8-0.2-1.4v-4.1h1.2v4c0 0.7 0.2 1.2 0.5 1.5s0.8 0.5 1.3 0.5c0.6 0 1-0.2 1.3-0.5s0.5-0.8 0.5-1.5v-4.1h1.2v4c0 0.5-0.1 1-0.2 1.4s-0.4 0.7-0.6 1c-0.3 0.3-0.6 0.5-1 0.6-0.3 0.4-0.8 0.4-1.2 0.4z"/>
		<path d="m153.3 242.1c-0.5 0-1-0.1-1.4-0.3s-0.8-0.4-1.1-0.8c-0.3-0.3-0.6-0.7-0.8-1.2-0.2-0.4-0.3-0.9-0.3-1.4s0.1-1 0.3-1.4 0.4-0.8 0.8-1.2c0.3-0.3 0.7-0.6 1.2-0.8 0.4-0.2 0.9-0.3 1.5-0.3 0.3 0 0.6 0 0.9 0.1s0.5 0.1 0.7 0.2l0.6 0.3c0.2 0.1 0.4 0.3 0.5 0.4l-0.8 0.9c-0.3-0.3-0.6-0.5-0.9-0.6-0.3-0.2-0.7-0.2-1.1-0.2-0.3 0-0.7 0.1-0.9 0.2-0.3 0.1-0.5 0.3-0.7 0.5s-0.4 0.5-0.5 0.8-0.2 0.6-0.2 1c0 0.3 0.1 0.7 0.2 1s0.3 0.6 0.5 0.8 0.5 0.4 0.7 0.5c0.3 0.1 0.6 0.2 0.9 0.2 0.4 0 0.8-0.1 1.1-0.2 0.3-0.2 0.6-0.4 0.9-0.7l0.8 0.8c-0.2 0.2-0.4 0.4-0.6 0.5s-0.4 0.3-0.6 0.4c-0.2 0.1-0.5 0.2-0.8 0.3s-0.6 0.2-0.9 0.2z"/>
		<path d="m158.3 236h-2.3v-1.2h5.8v1.2h-2.3v5.9h-1.3v-5.9z"/>
		<path d="m165.7 242.1c-0.5 0-1-0.1-1.5-0.3s-0.8-0.5-1.2-0.8c-0.3-0.3-0.6-0.7-0.8-1.2-0.2-0.4-0.3-0.9-0.3-1.4s0.1-1 0.3-1.4 0.4-0.8 0.8-1.2c0.3-0.3 0.7-0.6 1.2-0.8s1-0.3 1.5-0.3 1 0.1 1.5 0.3 0.8 0.5 1.2 0.8c0.3 0.3 0.6 0.7 0.8 1.2s0.3 0.9 0.3 1.4c0 0.5-0.1 1-0.3 1.4s-0.4 0.8-0.8 1.2c-0.3 0.3-0.7 0.6-1.2 0.8s-1 0.3-1.5 0.3zm0-1.2c0.4 0 0.7-0.1 1-0.2s0.5-0.3 0.8-0.5c0.2-0.2 0.4-0.5 0.5-0.8s0.2-0.6 0.2-1c0-0.3-0.1-0.7-0.2-1s-0.3-0.6-0.5-0.8-0.5-0.4-0.8-0.5-0.6-0.2-1-0.2-0.7 0.1-1 0.2c-0.3 0.1-0.5 0.3-0.8 0.5s-0.4 0.5-0.5 0.8c-0.1 0.3-0.2 0.6-0.2 1 0 0.3 0.1 0.7 0.2 1s0.3 0.6 0.5 0.8 0.5 0.4 0.8 0.5 0.6 0.2 1 0.2z"/>
		<path d="m172.2 234.8h2.6c0.6 0 1.1 0.1 1.5 0.3 0.5 0.2 0.9 0.4 1.2 0.7s0.6 0.7 0.8 1.1 0.3 0.9 0.3 1.4-0.1 1-0.3 1.4-0.4 0.8-0.8 1.1c-0.3 0.3-0.7 0.6-1.2 0.7-0.5 0.2-1 0.3-1.5 0.3h-2.6v-7zm2.7 6c0.4 0 0.7-0.1 1-0.2s0.6-0.3 0.8-0.5 0.4-0.5 0.5-0.8 0.2-0.6 0.2-1c0-0.3-0.1-0.7-0.2-1s-0.3-0.6-0.5-0.8-0.5-0.4-0.8-0.5-0.6-0.2-1-0.2h-1.4v4.9h1.4z"/>
		<path d="m179.3 234.8h5.3v1.1h-4v1.8h3.6v1.1h-3.6v1.9h4.1v1.1h-5.3v-7z"/>
		<path class="st0" d="m339.6 229.4h-4.4l-2.4 20.6h3.1l0.4-5h1.6l0.4 5h3.2l-1.9-20.6zm-2.2 5.5l-0.6 6.7h1.2l-0.6-6.7z"/>
		<path class="st0" d="m294.9 229.4h-4.4l-2.4 20.6h3.1l0.4-5h1.6l0.4 5h3.2l-1.9-20.6zm-2.2 5.5l-0.6 6.7h1.2l-0.6-6.7z"/>
		<path class="st0" d="m269.3 229.4h-4.4l-2.4 20.6h3.1l0.4-5h1.6l0.4 5h3.2l-1.9-20.6zm-2.3 5.5l-0.6 6.7h1.2l-0.6-6.7z"/>
		<polygon points="279.8 239.9 278.4 229.4 273.2 229.4 273.2 250 276.3 250 276.3 237.9 278 250 281.2 250 283 237.8 283 250 286.2 250 286.2 229.4 281.2 229.4"/>
		<polygon points="308.8 229.4 312.4 229.4 312.4 250 308.8 250"/>
		<polygon points="330.9 250 330.9 246.6 327.1 246.6 327.1 229.4 323.6 229.4 323.6 250"/>
		<polygon points="321.6 250 321.6 246.6 317.9 246.6 317.9 229.4 314.3 229.4 314.3 250"/>
		<path class="st0" d="m298.9 237.9v12h3.3v-9.1c0-1 1.4 0.3 1.4 1.2v6.1c0 1.1 0.5 1.8 0.5 1.8h3.3s-0.4-0.7-0.4-1.8v-6c0-1 0-3.3-2-3.3 0 0 2-0.3 2-4.6 0-3.8-1.3-4.7-4.6-4.7h-3.5v8.4zm3.3-5.4v4.8s1.4 0.3 1.4-2.5c-0.1-2.7-1.4-2.3-1.4-2.3z"/>
		<path d="m343.3 232.2c0-1.6 1.3-2.9 2.9-2.9s2.9 1.3 2.9 2.9-1.3 2.9-2.9 2.9c-1.6-0.1-2.9-1.3-2.9-2.9zm0.4 0c0 1.3 1.1 2.4 2.5 2.4s2.5-1.1 2.5-2.4-1.1-2.4-2.5-2.4c-1.4-0.1-2.5 1-2.5 2.4z"/>
			<path d="m344.5 233.1h-0.2v-2h0.4l0.6 1.6 0.6-1.6h0.4v2h-0.3v-1.7l-0.7 1.7h-0.2l-0.7-1.7 0.1 1.7z"/>
			<path d="m347.9 233.1l-0.4-0.9h-0.6v0.9h-0.3v-2h0.8c0.2 0 0.3 0 0.5 0.1 0.1 0.1 0.2 0.3 0.2 0.4 0 0.2-0.1 0.4-0.4 0.5l0.4 0.9h-0.2zm-0.5-1c0.1 0 0.3 0 0.4-0.1s0.1-0.2 0.1-0.3 0-0.2-0.1-0.3-0.2-0.1-0.3-0.1h-0.5v0.7h0.4z"/>
		<path d="m237.6 229.4c-3.5 0-6.3 2.8-6.3 6.3s6.3 14.4 6.3 14.4 6.3-10.9 6.3-14.4c0-3.5-2.8-6.3-6.3-6.3zm0 9.8c-1.9 0-3.4-1.5-3.4-3.4s1.5-3.4 3.4-3.4c1.9 0 3.4 1.5 3.4 3.4s-1.5 3.4-3.4 3.4z"/>
		<polygon points="252.7 240.1 251 229.4 245.8 229.4 245.8 250 248.8 250 248.8 236.9 251.4 250 255.8 250 255.8 229.4 252.7 229.4"/>
		<path d="m216.3 239.8v6.2c0 5.6 8 4.8 8 0.6v-4.6h-3.2v4.2c0 1.6-1.6 1.6-1.6-0.1v-6.4-6.4c0-1.7 1.6-1.7 1.6-0.1v4.2h3.2v-4.6c0-4.3-8-5-8 0.6v6.4z"/>
		<path d="m206.3 239.8v6.2c0 5.6 8 4.8 8 0.6v-4.6h-3.2v4.2c0 1.6-1.6 1.6-1.6-0.1v-6.4-6.4c0-1.7 1.6-1.7 1.6-0.1v4.2h3.2v-4.6c0-4.3-8-5-8 0.6v6.4z"/>
		<polygon points="204.4 229.4 198.2 229.4 198.2 250 204.4 250 204.4 246.6 201.5 246.6 201.5 241.5 204.4 241.5 204.4 237.8 201.5 237.8 201.5 233.5 204.4 233.5"/>
		<path d="m196.3 237.2v-4.5c0-4.5-8-4.5-8 0v2.8c0 1.6 0.9 2.7 1 2.9 0.3 0.4 2.5 3.1 3 3.8 0.8 1.1 0.8 1.5 0.8 3.6 0 1.8-1.6 1.8-1.6 0v-4h-3.2v4.6c0 4.6 8.1 4.6 8.1 0 0-0.9 0.3-3.9-0.9-5.4-1.1-1.3-2.8-3.5-3.4-4.3-0.8-1-0.6-1.7-0.6-3.8 0-1.2 1.6-1.2 1.6 0v4.2h3.2v0.1z"/>
		<polygon points="226.2 229.4 229.5 229.4 229.5 250 226.2 250"/>
</svg>
